<svg width="263" height="99" viewBox="0 0 263 99" fill="none" xmlns="http://www.w3.org/2000/svg">
<g filter="url(#filter0_d_5_80)">
<path d="M71.725 65.7V72.625H67.975V69H55.625V72.625H51.875L51.9 65.7H52.6C53.65 65.6667 54.3917 64.9 54.825 63.4C55.2584 61.9 55.525 59.7583 55.625 56.975L55.825 51.5H69.275V65.7H71.725ZM59.2 57.35C59.1167 59.4333 58.9417 61.1833 58.675 62.6C58.4084 64 58 65.0333 57.45 65.7H65.275V54.8H59.275L59.2 57.35ZM98.8014 65.7V72.7H95.0764V69H80.4514V51.5H84.4764V65.7H92.2764V51.5H96.3014V65.7H98.8014ZM132.402 65.25H124.277L122.727 69H118.577L126.377 51.5H130.377L138.202 69H133.952L132.402 65.25ZM131.127 62.175L128.352 55.475L125.577 62.175H131.127ZM158.848 54.8H150.523L150.548 69H146.523V51.5H158.873L158.848 54.8ZM174.917 51.5C176.467 51.5 177.809 51.7583 178.942 52.275C180.092 52.7917 180.975 53.525 181.592 54.475C182.209 55.425 182.517 56.55 182.517 57.85C182.517 59.1333 182.209 60.2583 181.592 61.225C180.975 62.175 180.092 62.9083 178.942 63.425C177.809 63.925 176.467 64.175 174.917 64.175H171.392V69H167.342V51.5H174.917ZM174.692 60.875C175.909 60.875 176.834 60.6167 177.467 60.1C178.1 59.5667 178.417 58.8167 178.417 57.85C178.417 56.8667 178.1 56.1167 177.467 55.6C176.834 55.0667 175.909 54.8 174.692 54.8H171.392V60.875H174.692ZM199.783 69.3C197.966 69.3 196.325 68.9083 194.858 68.125C193.408 67.3417 192.266 66.2667 191.433 64.9C190.616 63.5167 190.208 61.9667 190.208 60.25C190.208 58.5333 190.616 56.9917 191.433 55.625C192.266 54.2417 193.408 53.1583 194.858 52.375C196.325 51.5917 197.966 51.2 199.783 51.2C201.6 51.2 203.233 51.5917 204.683 52.375C206.133 53.1583 207.275 54.2417 208.108 55.625C208.941 56.9917 209.358 58.5333 209.358 60.25C209.358 61.9667 208.941 63.5167 208.108 64.9C207.275 66.2667 206.133 67.3417 204.683 68.125C203.233 68.9083 201.6 69.3 199.783 69.3ZM199.783 65.85C200.816 65.85 201.75 65.6167 202.583 65.15C203.416 64.6667 204.066 64 204.533 63.15C205.016 62.3 205.258 61.3333 205.258 60.25C205.258 59.1667 205.016 58.2 204.533 57.35C204.066 56.5 203.416 55.8417 202.583 55.375C201.75 54.8917 200.816 54.65 199.783 54.65C198.75 54.65 197.816 54.8917 196.983 55.375C196.15 55.8417 195.491 56.5 195.008 57.35C194.541 58.2 194.308 59.1667 194.308 60.25C194.308 61.3333 194.541 62.3 195.008 63.15C195.491 64 196.15 64.6667 196.983 65.15C197.816 65.6167 198.75 65.85 199.783 65.85Z" fill="white"/>
<path d="M7 83.5H4.5V88.5H7V83.5ZM51.5 88.5C52.8807 88.5 54 87.3807 54 86C54 84.6193 52.8807 83.5 51.5 83.5V88.5ZM7 88.5H51.5V83.5H7V88.5Z" fill="white"/>
<line x1="7" y1="88" x2="7" y2="32" stroke="white" stroke-width="5"/>
<line x1="256" y1="88" x2="256" y2="32" stroke="white" stroke-width="5"/>
<path d="M214.5 83.5C213.119 83.5 212 84.6193 212 86C212 87.3807 213.119 88.5 214.5 88.5V83.5ZM256 88.5H258.5V83.5H256V88.5ZM214.5 88.5H256V83.5H214.5V88.5Z" fill="white"/>
<path d="M7 30.5H4.5V35.5H7V30.5ZM60.5 35.5C61.8807 35.5 63 34.3807 63 33C63 31.6193 61.8807 30.5 60.5 30.5V35.5ZM7 35.5H60.5V30.5H7V35.5Z" fill="white"/>
<path d="M204.5 30.5C203.119 30.5 202 31.6193 202 33C202 34.3807 203.119 35.5 204.5 35.5V30.5ZM256 35.5H258.5V30.5H256V35.5ZM204.5 35.5H256V30.5H204.5V35.5Z" fill="white"/>
<path d="M69.43 83.7H70.39V85.95H73.41V83.7H74.37V89H73.41V86.78H70.39V89H69.43V83.7ZM78.1267 83.65C78.86 83.65 79.42 83.83 79.8067 84.19C80.2 84.55 80.3967 85.0867 80.3967 85.8V89H79.4867V88.3C79.3267 88.5467 79.0967 88.7367 78.7967 88.87C78.5033 88.9967 78.1533 89.06 77.7467 89.06C77.1533 89.06 76.6767 88.9167 76.3167 88.63C75.9633 88.3433 75.7867 87.9667 75.7867 87.5C75.7867 87.0333 75.9567 86.66 76.2967 86.38C76.6367 86.0933 77.1767 85.95 77.9167 85.95H79.4367V85.76C79.4367 85.3467 79.3167 85.03 79.0767 84.81C78.8367 84.59 78.4833 84.48 78.0167 84.48C77.7033 84.48 77.3967 84.5333 77.0967 84.64C76.7967 84.74 76.5433 84.8767 76.3367 85.05L75.9367 84.33C76.21 84.11 76.5367 83.9433 76.9167 83.83C77.2967 83.71 77.7 83.65 78.1267 83.65ZM77.9067 88.32C78.2733 88.32 78.59 88.24 78.8567 88.08C79.1233 87.9133 79.3167 87.68 79.4367 87.38V86.64H77.9567C77.1433 86.64 76.7367 86.9133 76.7367 87.46C76.7367 87.7267 76.84 87.9367 77.0467 88.09C77.2533 88.2433 77.54 88.32 77.9067 88.32ZM86.0753 84.54H84.1353V89H83.1753V84.54H81.2353V83.7H86.0753V84.54ZM91.8163 83.7L89.2463 89.53C89.0196 90.07 88.7529 90.45 88.4463 90.67C88.1463 90.89 87.7829 91 87.3563 91C87.0963 91 86.8429 90.9567 86.5963 90.87C86.3563 90.79 86.1563 90.67 85.9963 90.51L86.4063 89.79C86.6796 90.05 86.9963 90.18 87.3563 90.18C87.5896 90.18 87.7829 90.1167 87.9363 89.99C88.0963 89.87 88.2396 89.66 88.3663 89.36L88.5363 88.99L86.1963 83.7H87.1963L89.0463 87.94L90.8763 83.7H91.8163ZM95.6092 83.65C96.1225 83.65 96.5825 83.7633 96.9892 83.99C97.3958 84.2167 97.7125 84.5333 97.9392 84.94C98.1725 85.3467 98.2892 85.8167 98.2892 86.35C98.2892 86.8833 98.1725 87.3567 97.9392 87.77C97.7125 88.1767 97.3958 88.4933 96.9892 88.72C96.5825 88.9467 96.1225 89.06 95.6092 89.06C95.2292 89.06 94.8792 88.9867 94.5592 88.84C94.2458 88.6933 93.9792 88.48 93.7592 88.2V90.94H92.7992V83.7H93.7192V84.54C93.9325 84.2467 94.2025 84.0267 94.5292 83.88C94.8558 83.7267 95.2158 83.65 95.6092 83.65ZM95.5292 88.22C95.8692 88.22 96.1725 88.1433 96.4392 87.99C96.7125 87.83 96.9258 87.61 97.0792 87.33C97.2392 87.0433 97.3192 86.7167 97.3192 86.35C97.3192 85.9833 97.2392 85.66 97.0792 85.38C96.9258 85.0933 96.7125 84.8733 96.4392 84.72C96.1725 84.5667 95.8692 84.49 95.5292 84.49C95.1958 84.49 94.8925 84.57 94.6192 84.73C94.3525 84.8833 94.1392 85.1 93.9792 85.38C93.8258 85.66 93.7492 85.9833 93.7492 86.35C93.7492 86.7167 93.8258 87.0433 93.9792 87.33C94.1325 87.61 94.3458 87.83 94.6192 87.99C94.8925 88.1433 95.1958 88.22 95.5292 88.22ZM101.525 83.65C102.258 83.65 102.818 83.83 103.205 84.19C103.598 84.55 103.795 85.0867 103.795 85.8V89H102.885V88.3C102.725 88.5467 102.495 88.7367 102.195 88.87C101.902 88.9967 101.552 89.06 101.145 89.06C100.552 89.06 100.075 88.9167 99.7151 88.63C99.3618 88.3433 99.1851 87.9667 99.1851 87.5C99.1851 87.0333 99.3551 86.66 99.6951 86.38C100.035 86.0933 100.575 85.95 101.315 85.95H102.835V85.76C102.835 85.3467 102.715 85.03 102.475 84.81C102.235 84.59 101.882 84.48 101.415 84.48C101.102 84.48 100.795 84.5333 100.495 84.64C100.195 84.74 99.9418 84.8767 99.7351 85.05L99.3351 84.33C99.6084 84.11 99.9351 83.9433 100.315 83.83C100.695 83.71 101.098 83.65 101.525 83.65ZM101.305 88.32C101.672 88.32 101.988 88.24 102.255 88.08C102.522 87.9133 102.715 87.68 102.835 87.38V86.64H101.355C100.542 86.64 100.135 86.9133 100.135 87.46C100.135 87.7267 100.238 87.9367 100.445 88.09C100.652 88.2433 100.938 88.32 101.305 88.32ZM110.074 83.7V89H109.114V84.54H106.834L106.774 85.72C106.74 86.4333 106.677 87.03 106.584 87.51C106.49 87.9833 106.337 88.3633 106.124 88.65C105.91 88.9367 105.614 89.08 105.234 89.08C105.06 89.08 104.864 89.05 104.644 88.99L104.704 88.18C104.79 88.2 104.87 88.21 104.944 88.21C105.21 88.21 105.41 88.0933 105.544 87.86C105.677 87.6267 105.764 87.35 105.804 87.03C105.844 86.71 105.88 86.2533 105.914 85.66L106.004 83.7H110.074ZM114.38 85.5C115.053 85.5067 115.567 85.66 115.92 85.96C116.273 86.26 116.45 86.6833 116.45 87.23C116.45 87.8033 116.257 88.2467 115.87 88.56C115.49 88.8667 114.943 89.0167 114.23 89.01L111.93 89V83.7H112.89V85.49L114.38 85.5ZM114.15 88.28C114.583 88.2867 114.91 88.2 115.13 88.02C115.357 87.84 115.47 87.5733 115.47 87.22C115.47 86.8733 115.36 86.62 115.14 86.46C114.927 86.3 114.597 86.2167 114.15 86.21L112.89 86.19V88.27L114.15 88.28ZM117.682 83.7H118.642V85.95H121.662V83.7H122.622V89H121.662V86.78H118.642V89H117.682V83.7ZM126.879 85.5C127.545 85.5067 128.055 85.66 128.409 85.96C128.762 86.26 128.939 86.6833 128.939 87.23C128.939 87.8033 128.745 88.2467 128.359 88.56C127.979 88.8667 127.432 89.0167 126.719 89.01L124.489 89V83.7H125.449V85.49L126.879 85.5ZM129.729 83.7H130.689V89H129.729V83.7ZM126.649 88.28C127.082 88.2867 127.409 88.2 127.629 88.02C127.855 87.84 127.969 87.5733 127.969 87.22C127.969 86.8733 127.859 86.62 127.639 86.46C127.419 86.3 127.089 86.2167 126.649 86.21L125.449 86.19V88.27L126.649 88.28ZM137.345 86.38C137.345 86.4533 137.338 86.55 137.325 86.67H133.025C133.085 87.1367 133.288 87.5133 133.635 87.8C133.988 88.08 134.425 88.22 134.945 88.22C135.578 88.22 136.088 88.0067 136.475 87.58L137.005 88.2C136.765 88.48 136.465 88.6933 136.105 88.84C135.752 88.9867 135.355 89.06 134.915 89.06C134.355 89.06 133.858 88.9467 133.425 88.72C132.992 88.4867 132.655 88.1633 132.415 87.75C132.182 87.3367 132.065 86.87 132.065 86.35C132.065 85.8367 132.178 85.3733 132.405 84.96C132.638 84.5467 132.955 84.2267 133.355 84C133.762 83.7667 134.218 83.65 134.725 83.65C135.232 83.65 135.682 83.7667 136.075 84C136.475 84.2267 136.785 84.5467 137.005 84.96C137.232 85.3733 137.345 85.8467 137.345 86.38ZM134.725 84.46C134.265 84.46 133.878 84.6 133.565 84.88C133.258 85.16 133.078 85.5267 133.025 85.98H136.425C136.372 85.5333 136.188 85.17 135.875 84.89C135.568 84.6033 135.185 84.46 134.725 84.46ZM146.43 83.7V89H145.47V84.54H142.48V89H141.52V83.7H146.43ZM151.097 83.65C151.611 83.65 152.071 83.7633 152.477 83.99C152.884 84.2167 153.201 84.5333 153.427 84.94C153.661 85.3467 153.777 85.8167 153.777 86.35C153.777 86.8833 153.661 87.3567 153.427 87.77C153.201 88.1767 152.884 88.4933 152.477 88.72C152.071 88.9467 151.611 89.06 151.097 89.06C150.717 89.06 150.367 88.9867 150.047 88.84C149.734 88.6933 149.467 88.48 149.247 88.2V90.94H148.287V83.7H149.207V84.54C149.421 84.2467 149.691 84.0267 150.017 83.88C150.344 83.7267 150.704 83.65 151.097 83.65ZM151.017 88.22C151.357 88.22 151.661 88.1433 151.927 87.99C152.201 87.83 152.414 87.61 152.567 87.33C152.727 87.0433 152.807 86.7167 152.807 86.35C152.807 85.9833 152.727 85.66 152.567 85.38C152.414 85.0933 152.201 84.8733 151.927 84.72C151.661 84.5667 151.357 84.49 151.017 84.49C150.684 84.49 150.381 84.57 150.107 84.73C149.841 84.8833 149.627 85.1 149.467 85.38C149.314 85.66 149.237 85.9833 149.237 86.35C149.237 86.7167 149.314 87.0433 149.467 87.33C149.621 87.61 149.834 87.83 150.107 87.99C150.381 88.1433 150.684 88.22 151.017 88.22ZM157.442 89.06C156.916 89.06 156.442 88.9433 156.022 88.71C155.602 88.4767 155.272 88.1567 155.032 87.75C154.799 87.3367 154.682 86.87 154.682 86.35C154.682 85.83 154.799 85.3667 155.032 84.96C155.272 84.5467 155.602 84.2267 156.022 84C156.442 83.7667 156.916 83.65 157.442 83.65C157.969 83.65 158.439 83.7667 158.852 84C159.272 84.2267 159.599 84.5467 159.832 84.96C160.072 85.3667 160.192 85.83 160.192 86.35C160.192 86.87 160.072 87.3367 159.832 87.75C159.599 88.1567 159.272 88.4767 158.852 88.71C158.439 88.9433 157.969 89.06 157.442 89.06ZM157.442 88.22C157.782 88.22 158.086 88.1433 158.352 87.99C158.626 87.83 158.839 87.61 158.992 87.33C159.146 87.0433 159.222 86.7167 159.222 86.35C159.222 85.9833 159.146 85.66 158.992 85.38C158.839 85.0933 158.626 84.8733 158.352 84.72C158.086 84.5667 157.782 84.49 157.442 84.49C157.102 84.49 156.796 84.5667 156.522 84.72C156.256 84.8733 156.042 85.0933 155.882 85.38C155.729 85.66 155.652 85.9833 155.652 86.35C155.652 86.7167 155.729 87.0433 155.882 87.33C156.042 87.61 156.256 87.83 156.522 87.99C156.796 88.1433 157.102 88.22 157.442 88.22ZM166.929 88.16V90.23H166.029V89H161.599V90.23H160.689V88.16H160.969C161.309 88.14 161.543 87.9 161.669 87.44C161.796 86.98 161.883 86.33 161.929 85.49L162.009 83.7H166.119V88.16H166.929ZM162.809 85.56C162.783 86.2267 162.726 86.78 162.639 87.22C162.559 87.6533 162.409 87.9667 162.189 88.16H165.159V84.54H162.859L162.809 85.56ZM172.91 83.7L170.34 89.53C170.113 90.07 169.847 90.45 169.54 90.67C169.24 90.89 168.877 91 168.45 91C168.19 91 167.937 90.9567 167.69 90.87C167.45 90.79 167.25 90.67 167.09 90.51L167.5 89.79C167.773 90.05 168.09 90.18 168.45 90.18C168.683 90.18 168.877 90.1167 169.03 89.99C169.19 89.87 169.333 89.66 169.46 89.36L169.63 88.99L167.29 83.7H168.29L170.14 87.94L171.97 83.7H172.91ZM175.953 86.76H174.853V89H173.893V83.7H174.853V85.94H175.973L177.693 83.7H178.723L176.713 86.25L178.863 89H177.733L175.953 86.76ZM183.732 84.54H181.792V89H180.832V84.54H178.892V83.7H183.732V84.54ZM187.103 85.5C187.77 85.5067 188.28 85.66 188.633 85.96C188.987 86.26 189.163 86.6833 189.163 87.23C189.163 87.8033 188.97 88.2467 188.583 88.56C188.203 88.8667 187.657 89.0167 186.943 89.01L184.713 89V83.7H185.673V85.49L187.103 85.5ZM189.953 83.7H190.913V89H189.953V83.7ZM186.873 88.28C187.307 88.2867 187.633 88.2 187.853 88.02C188.08 87.84 188.193 87.5733 188.193 87.22C188.193 86.8733 188.083 86.62 187.863 86.46C187.643 86.3 187.313 86.2167 186.873 86.21L185.673 86.19V88.27L186.873 88.28Z" fill="white"/>
<path d="M134.494 22.8475C130.024 24.1244 125.555 23.3441 123.214 22.6347C119.639 22.6347 119.029 26.6783 119.383 28.8065C119.554 26.9337 120.306 26.4655 120.66 26.4655C120.66 27.3168 121.228 28.3809 121.512 28.8065C121.341 29.3173 120.589 30.0125 120.235 30.2963C120.405 32.3394 121.724 33.134 122.363 33.2758C121.682 32.084 121.653 31.0767 121.724 30.722C122.235 30.0409 122.647 30.4382 122.788 30.722C123.129 32.7651 124.065 33.2758 124.491 33.2758C123.98 32.2543 123.924 30.651 124.065 30.5091C126.407 31.1476 125.768 29.445 125.981 29.2322C127.471 28.5937 129.244 28.9484 130.024 29.2322C130.024 30.7645 130.876 32.4245 131.301 33.063C130.961 31.8712 131.443 30.2963 131.727 29.6578C131.727 31.5733 132.373 32.9564 132.366 33.063C132.536 30.6794 133.004 29.516 133.217 29.2322C135.09 29.2322 135.274 26.3946 135.132 24.9757C136.409 25.4014 137.331 25.1886 137.686 24.9757C139.602 25.827 140.027 24.5501 139.602 24.3372C139.176 24.1244 137.402 22.4219 136.835 21.3577C135.813 21.0172 134.778 22.3509 134.494 22.8475Z" fill="white"/>
<path d="M147.388 16.6207C147.899 20.0259 151.148 22.4379 152.709 23.2182C152.709 28.4145 147.799 26.0052 154.837 27.2619L160.157 25.7721L160.37 24.9208C159.008 26.2829 156.965 24.7789 156.114 23.8567V19.6002C159.349 16.7058 159.306 12.1514 158.88 10.236C157.178 16.7058 155.475 17.7557 154.837 17.472C154.496 14.0668 152.567 11.7967 151.644 11.0873C153.347 16.7058 153.063 20.2387 152.709 21.3028C151.346 21.3028 148.594 18.1814 147.388 16.6207Z" fill="#8DA61A"/>
<rect x="163.988" y="29.8157" width="2.97953" height="8.93858" fill="white"/>
<path d="M89.5 34.7162C89.5 34.7162 96.3104 38.1214 105.675 38.1214C115.039 38.1214 129.724 32.1623 137.598 32.3752C145.473 32.588 158.497 33.6521 173.14 43.8676" stroke="#8DA61A" stroke-width="4" stroke-linecap="round"/>
<path d="M174.204 23.6439C174.204 27.2876 171.25 30.2414 167.606 30.2414C163.962 30.2414 161.009 27.2876 161.009 23.6439C164.201 21.5156 163.962 17.0464 167.606 17.0464C171.25 17.0464 174.204 20.0002 174.204 23.6439Z" fill="white"/>
<circle cx="169.947" cy="17.8976" r="5.5334" fill="white"/>
<path d="M173.352 15.3438C173.352 18.3998 170.875 20.8772 167.819 20.8772C164.763 20.8772 162.498 18.3998 162.498 15.3438C165.265 13.0027 164.763 9.81036 167.819 9.81036C170.875 9.81036 173.352 12.2878 173.352 15.3438Z" fill="white"/>
<path d="M168.67 24.708C168.67 27.764 166.193 30.2414 163.137 30.2414C160.081 30.2414 157.603 28.4024 157.603 25.3464C160.583 25.3464 163.137 22.7926 163.137 19.1746C166.193 19.1746 168.67 21.652 168.67 24.708Z" fill="white"/>
<path d="M152.07 28.1131H156.752V34.4978H152.07V28.1131Z" fill="#8DA61A"/>
<rect x="107.803" y="26.4106" width="5.10776" height="10.6412" fill="#8DA61A"/>
<rect x="96.3104" y="26.4106" width="5.10776" height="10.6412" fill="#8DA61A"/>
<path d="M92.0539 24.0695L96.3104 19.6002V14.9181H95.0334V13.6412H100.567V14.9181H99.2899V16.6207L104.61 11.0873L117.167 24.0695V26.4106H92.0539V24.0695Z" fill="#8DA61A"/>
<path d="M144.529 20.3185C144.529 24.7878 146.975 26.8362 152.62 26.8362H156.195C165.528 24.6015 164.85 18.7046 163.345 16.0354C168.802 10.2626 161.464 3 155.819 3C151.303 3 149.233 5.42083 148.292 7.09683C142.083 7.09683 140.578 10.635 140.578 13.6145V13.6146C140.578 16.5942 140.578 20.3185 144.529 20.3185Z" stroke="#8DA61A" stroke-width="6"/>
</g>
<defs>
<filter id="filter0_d_5_80" x="0.5" y="0" width="262" height="99" filterUnits="userSpaceOnUse" color-interpolation-filters="sRGB">
<feFlood flood-opacity="0" result="BackgroundImageFix"/>
<feColorMatrix in="SourceAlpha" type="matrix" values="0 0 0 0 0 0 0 0 0 0 0 0 0 0 0 0 0 0 127 0" result="hardAlpha"/>
<feOffset dy="4"/>
<feGaussianBlur stdDeviation="2"/>
<feComposite in2="hardAlpha" operator="out"/>
<feColorMatrix type="matrix" values="0 0 0 0 0 0 0 0 0 0 0 0 0 0 0 0 0 0 0.25 0"/>
<feBlend mode="normal" in2="BackgroundImageFix" result="effect1_dropShadow_5_80"/>
<feBlend mode="normal" in="SourceGraphic" in2="effect1_dropShadow_5_80" result="shape"/>
</filter>
</defs>
</svg>
